<svg xmlns="http://www.w3.org/2000/svg" version="1.1" xmlns:xlink="http://www.w3.org/1999/xlink" xmlns:svgjs="http://svgjs.dev/svgjs" width="1500" height="1500" viewBox="0 0 1500 1500"><rect width="1500" height="1500" fill="#ffffff"></rect><g transform="matrix(0.6666666666666666,0,0,0.6666666666666666,250.00000642511293,187.66666666666674)"><svg viewBox="0 0 320 360" data-background-color="#ffffff" preserveAspectRatio="xMidYMid meet" height="1687" width="1500" xmlns="http://www.w3.org/2000/svg" xmlns:xlink="http://www.w3.org/1999/xlink"><g id="tight-bounds" transform="matrix(1,0,0,1,0.0000020560361235766322,0)"><svg viewBox="0 0 320 360" height="360" width="320"><g><svg></svg></g><g><svg viewBox="0 0 320 360" height="360" width="320"><g><path transform="translate(-15.58119,4.24857) scale(3.51065,3.51065)" d="M51.5 85.2c-0.4-0.5-0.8-0.2-0.8-0.5-2.4 0.6-6.9-1-8.8-0.8 0.4-0.6-0.6-0.5-0.6-0.9-0.4 0.6-0.8 0-1.4 0.2-0.6-1.5-3-0.4-3.3-2.3-1.4 0-1.9-0.8-3.3-1.6 0.1-0.1 0.2-0.1 0.3-0.2-0.7-0.1-0.7-0.5-1.3-0.5l0.2-0.4c-1.1-0.2-1.5-1.9-3.1-2.5-0.5-0.1-1.6-1.8-2.2-2.2-0.3-0.2-0.8-0.2-0.1-0.3-0.1-0.1-0.1-0.3 0-0.4-0.7-0.2-0.8-0.8-1.7-1.1-0.1-0.3 0.2-0.5 0-0.7-0.2-0.1-0.5 0.1-0.7 0-0.1 1.8 1.9 2 2.5 3.5-0.2-0.2-0.5-0.8-0.7-0.4-0.1 0.3 0.8 1.4 0.8 0.8-0.3 0.2-0.4-0.3-0.2-0.4 0.3 0.5 0.9 0.4 0.9 0.8-0.3 0.3-0.7-0.3-0.6 0.2 0.9 0.5 0.8 1 1.3 1.7-0.4-0.5-0.5 0.4-0.9 0-0.1-1.5-1.8-1.2-1.8-2.7-0.2-0.5-0.4-0.1-0.7-0.3 0.4-0.4-1.2-1.8-1.2-1.3-0.5-0.6-0.2-0.8-0.3-1.2-0.4-0.1-0.1 0.4-0.4 0.1 0.4-0.7-0.5-1.6-1.1-2.3l0.4-0.2c-0.7-0.4-0.8-1.2-1.3-2.1-0.6 0.9 1.2 2.9 0.9 3.3 0 0.1 0.7 0.9 0.9 1.3 0.8 1.4 1.4 3.1 2.5 3.9-0.2-0.1-0.1-0.7 0.2-0.4 0 0.3-0.2 0.6-0.2 0.9 0.6 0.6 1.1 1.1 1.7 1.7-1.3-0.8-2.6-1.6-3.5-2.8 0.5-0.1 1 0.8 1.4 0.7-1-0.8-0.7-1.1-1.1-2.1-0.4-0.3 0.1 0.4-0.3 0.5-1.3-1.2-2.3-1.9-2.9-3 0.1-0.1 0.2-0.2 0.2-0.4-0.1-0.1-0.1-0.1-0.2-0.2 0.6 0.6 0.8 1.1 1.5 1.2-0.3-0.3 0-0.4-0.4-0.7-0.2-0.4-0.5 0.2-0.7-0.1 0.2-0.3 0-0.7 0-1-0.2 0-0.4 0-0.5-0.3-0.2-0.1-0.3 0-0.4 0.2-0.1-0.1-0.1-0.3-0.2-0.4v-0.1c-0.1-0.1-0.2-0.3-0.3-0.4-0.8-2.1-1.3-4.9-2.4-6.7 0.3-1.2-0.2-3.6-0.5-4.2 0.3-0.5 0.1-2.8-0.1-3.2-0.5 0.2 0.1 1.3-0.4 1.6-0.5-2.2 0.3-4.7 0.1-6.7 0.2 0 0.4 0 0.4-0.1-0.3-0.3 0.2-0.9 0.1-1.6 0.4-0.9-0.9 1.3-0.9 2.2-0.1 0.2-0.5 0-0.4 0.5 0 0.7 0.2 2.1-0.2 3.1-0.2 0-0.2-0.2-0.4-0.1-0.1 0.5-0.2 1.1-0.3 1.6-0.1-0.2-0.2-0.5-0.2-0.6-0.5-2.5 0-5.4-0.2-7.5 0.4 0 0.4-0.6 0.7-0.8-0.1 0.8-0.3 1.8 0.2 2 0.4-3.9 1.2-8.2 3-12.4 1.3-3.1 3.2-6.2 5.5-8.7 0.2 0.3-0.1 1 0 1.3 2-2.1 3.3-4.6 5.5-6 0.1 0.5-0.9 0.9-0.9 1.3 0.9-0.9 1.2-0.6 2.2-0.9 0.3-0.4-0.4 0-0.5-0.4 0.6-0.4 1-0.9 1.4-1.2 0 0.1-0.1 0.1-0.1 0.2 1.1-0.3 1.2-0.9 2-1.1-0.1-0.1-0.3-0.2-0.6-0.1 0.2-0.1 0.5-0.3 0.8-0.4-0.1 0-0.1 0.1-0.2 0.1 0.6-0.3 0.1 0.1 0.1 0.3 0.1 0 0.2-0.1 0.2-0.1-0.6 0.4-1 0.6-1.2 1.3 0.3-0.2 0.4 0 0.8-0.3 0.4-0.2-0.1-0.5 0.2-0.7 0.3 0.2 0.7 0.1 1 0.1 0-0.2 0.1-0.4 0.3-0.5 0.1-0.2 0-0.3-0.1-0.3 0.1-0.1 0.2-0.1 0.4-0.2 0 0 0.1 0 0.1 0.1 1.7-0.8 3.6-1.5 5.4-2.1 1.1-0.1 2.5-0.1 3.1-0.8-0.2 0-0.4 0.1-0.5 0 0.1 0 0.3-0.1 0.4-0.1 0.2 0.2 0.5 0 0.2 0.4 0.1 0 0.1 0 0.2-0.1 0 0.1 0 0.1 0.1 0.2 0.1 0 0.2-0.1 0.3-0.3 0.1 0 0.2 0 0.3-0.1l-0.1 0.1c0.8-0.2 1.5-0.1 2.6-0.3 0-0.1 0-0.2 0-0.3 0.2 0 0.3-0.1 0.5-0.1v0.1c0.4-0.2 0.8 0.2 0.8 0 0.1 0 0.1 0 0.2 0 0 0.2-0.1 0.3-0.1 0.4 0.5 0 0.8 0 1-0.3-0.1-0.1-0.2-0.1-0.3-0.1 0.2 0 0.4-0.1 0.6-0.2 0.3 0.1 0.4 0.2 0.4 0.6 0.5-0.9 2.1 0.2 2.8 0 0.3 0 0.2-0.4 0.4-0.6 0.1 0 0.2 0 0.3 0 0.5 0.4 1.2 0.8 2.1 0.9-0.8-0.2 0.1-0.3 0.2-0.4-0.2 0-0.2-0.1-0.2-0.2 0.3 0 0.6 0.1 0.9 0.1 0 0.2 0.1 0.3 0.3 0.3 0.2 0 0.2-0.1 0.2-0.3 0.3 0 0.5 0 0.8 0.1-0.1 0.4 0.5 0.5 0.7 0.8-0.8-0.2-1.7-0.5-2 0 3.2 0.7 6.7 1.7 10.1 3.4 0 0 0 0 0 0.1h0.1c0.6 0.3 1.2 0.6 1.8 0.9 0.4 0.2 0.7 0.4 1.1 0.7 0 0.1 0 0.2 0.2 0.2h0.1c0.4 0.3 0.8 0.5 1.2 0.8 0.4 0.6 0.8 1.4 1.5 1.2 1.5 2.3 3.1 3.2 4.4 5.6 0.1-0.4 0.4 0.9 0.9 1-0.8-0.1 0.5 0.5-0.3 0.4 0.7 0.7 0.9 1 1 1.8-0.2-0.4-0.3-0.5-0.4-0.1-0.1 0.6 0.7-0.1 1 0.5-0.6 0-0.4 0.4-0.3 0.9 0.3-0.3 0.2-0.6 0.5-0.5 0.4 0.4-0.2 0.5-0.1 0.8 0.3-0.4 0.4-0.2 0.8 0-0.5 0.1 0.3 0.8-0.3 0.5 0.4 0.5 0.5 0.8 0.3 1.3-0.4-0.6-0.1-1-0.7-0.9 1.2 1 0.6 3.3 2 3.5-0.9 0.2 0 0.6-0.5 0.7 0.6 0.2 0.3 1 1 1.2-0.1 0.5-0.3 0.8-0.4 1.3 0.3 0.4 0.4 1.2 0.9 1.3-0.3 0.3-0.1 1.1-0.4 1.4 0.4-0.2 0.6-0.2 0.9 0.2-0.5 0.4-0.1 0.8-0.4 0.9 0.9 2.3-0.2 7 0.3 8.8-0.6-0.3-0.4 0.7-0.8 0.7 0.7 0.3 0.1 0.8 0.4 1.3-1.4 0.8 0 3-1.9 3.5 0.2 1.4-0.6 2-1.2 3.5-0.1-0.1-0.1-0.2-0.2-0.3-0.1 0.7-0.5 0.8-0.3 1.4l-0.4-0.2c0 1.1-1.7 1.7-2.1 3.4-0.1 0.5-1.6 1.8-2 2.5-0.2 0.3-0.1 0.8-0.3 0.1-0.1 0.1-0.3 0.1-0.4 0.1-0.1 0.7-0.7 0.9-0.9 1.8-0.2 0.1-0.5-0.2-0.7 0.1 0 0.2 0.2 0.5 0.1 0.7 1.8-0.1 1.8-2.2 3.2-2.9-0.1 0.3-0.7 0.6-0.3 0.8 0.3 0 1.2-1 0.7-0.9 0.3 0.2-0.3 0.4-0.4 0.3 0.5-0.4 0.3-0.9 0.7-1 0.3 0.2-0.3 0.7 0.3 0.6 0.4-0.9 0.9-1 1.5-1.5-0.4 0.4 0.5 0.5 0.1 0.9-1.5 0.3-1 2-2.5 2.2-0.4 0.3-0.1 0.4-0.2 0.7-0.5-0.3-1.6 1.4-1.2 1.3-0.5 0.5-0.8 0.3-1.2 0.4-0.1 0.4 0.4 0.1 0.2 0.4-0.7-0.3-1.6 0.7-2.2 1.4l-0.3-0.3c-0.3 0.8-1.1 0.9-2 1.5 1 0.5 2.7-1.6 3.2-1.3 0.1 0 0.9-0.8 1.2-1.1 1.3-1 2.9-1.8 3.5-2.9-0.1 0.2-0.7 0.2-0.4-0.1 0.3-0.1 0.6 0.1 0.9 0.1 1.6-2.2 3.6-4 5.1-6.6 0.1-0.1 0.2-0.3 0.3-0.5-0.2 0.6-0.5 1.1-0.7 1.7-1.6 1.1-2.2 4.3-4.1 4.8 0.1 1.1-0.9 1.4-1.4 2.7-0.3 0.4-0.5-0.3-0.8 0.2 0.3 1.4-2.5 1.3-2.4 2.6-0.2 0.1-0.5 0.2-0.7 0.4h-0.1c-0.1 0.1-0.1 0.1-0.2 0.2-0.5 0.3-0.9 0.6-1.3 0.9-1.4 0.8-3.3 1.4-4.8 2.2v-0.1c-0.4 0.2-0.9 0.1-0.8 0.5-0.3 0.2-0.6 0.4-0.9 0.6-0.1 0-0.1 0-0.2 0 0 0-0.1-0.1-0.2-0.1-0.2 0-0.2 0-0.3 0.1-1.3 0.1-3 0.7-3.5 1.1-0.5-0.3-2.8 0.2-3.2 0.4 0.2 0.3 0.8 0 1.3 0-0.3 0.1-0.6 0.2-0.7 0.4-0.1 0-0.1 0-0.2 0-0.1-0.3-0.4 0-0.5-0.1h0.1c-0.1-0.4-0.4-0.6-0.9-0.5 0 0.2 0 0.3-0.1 0.5 0.2 0 0.8-0.3 0.8 0-0.1 0-0.1 0.1 0 0.1-0.2 0.2-0.5 0.2-0.7 0.3-0.4 0-0.9 0-1.3 0-0.1-0.1-0.2-0.1-0.4-0.2-0.1 0.1-0.3 0.1-0.4 0.2-0.6 0-1.3 0.1-1.8 0.2 0-0.2 0-0.4-0.2-0.4-0.3 0.4-0.9-0.1-1.6 0.1-0.7-0.2 0.4 0.3 1.4 0.5-0.1 0.1-0.2 0.2-0.5 0.3M37.5 86.6c-1.4-1.3-4.3-1.9-4.8-2.9-0.8-0.1-2-1.6-3-1.8 0.5 0 0.1-0.3 0-0.5-0.2 0.2-0.4 0.3-0.6 0.3 0-0.8-0.8-1.3-1.5-1.8 0.5 0.3 0.9 0.5 1.5 0.6 0-0.2 0-0.4 0.2-0.4 0.7 0.7 1.5 1.4 2.4 2.1 1.2 1.1 7.4 3.9 8.5 4.4 0 0-0.2 0.4-0.1 0.4 0.5 0.3 0.9-0.3 1 0.4-1.6 0.2-2.2-0.9-3.6-0.8M83.6 63.4v0.1 0c-0.1 0 0-0.1 0-0.1M43.2 17.1c-0.1 0.1-0.2 0.1-0.2 0.1 0-0.1 0.1-0.1 0.2-0.1M41.3 17.6c0 0.1 0 0.1 0 0 0 0.1 0 0.1 0 0 0 0.1 0 0 0 0M34.7 19.7v0c0.1-0.1 0.1-0.1 0.2-0.1-0.1 0-0.2 0.1-0.2 0.1M50.7 16.4c-0.2 0-0.3 0-0.4-0.1 0.1 0 0.2 0 0.3 0h0.1c0 0 0 0 0 0.1M52.5 16.6c-0.1-0.1-0.4-0.2-0.7-0.2 0-0.1 0.1-0.2 0.1-0.2 0.1 0 0.2 0 0.3 0 0 0 0.1 0 0.1 0.1 0 0 0 0 0-0.1 0.1 0 0.1 0 0.2 0 0.1 0.2 0.2 0.3 0 0.4M55.8 16.9c-0.5 0.1-0.8-0.1-1.3-0.4 0.3 0 0.7 0.1 1 0.2 0.1 0 0.2 0.1 0.3 0.2M91.4 31.1c-0.2 0.1-0.3 0.1-0.5-0.3-1.6-3.4-4.5-8.3-8.7-12.4-4.1-4.2-9.6-7.6-14.6-9.4 0.3 0.1 0.7 0.3 0.5 0.5-4.4-1.7-8.6-2.7-12.6-3.1-10.8-1.7-22.1 0.6-30.8 6.2 0.1 0.2 0.1 0.3-0.2 0.5-3.2 2-7.7 5.5-11.3 10.1-3.6 4.6-6.4 10.4-7.6 15.6 0.1-0.3 0.2-0.8 0.4-0.6-2.6 10.3-1.9 19.1 1.7 26.7 0.2-0.2-0.5-1.2 0.1-1.1 0.4 1.1 0.9 2.3 1.5 3.4 0.7 1.6 1.5 3.7 2.6 4.2-2.8-5.5-4.7-11.8-4.9-17.4 0.4 0.8 0.3 2.5 0.9 3.2 0.2-3.8-0.7-8.9 0.6-12.5-0.3 1.9-0.5 4.5-0.3 7.1 0 1.9 0.9 7.2 1.5 7.7-0.1-0.1-0.1-0.6 0-0.6 0.3 0.6-0.4 0.9 0.1 1 0-0.2 0.1-0.2 0.2-0.2 1 2.2 2.3 5.6 3.3 7.3 1.2 2.2 2.8 4.2 4.6 6 0 0.1 0.1 0.1 0.1 0.2 0.2 0.5 0.9 1.1 1.1 1.5 0.1 0.2-0.1 0.5 0 0.7 1.5 2.8 3.7 5.6 6.4 7.8 1.7 2 4.4 4.1 7.7 5.9 3.2 1.7 6.9 3.1 10.3 3.9 2.4 0.6 5.3 0.7 7.1 1.1 2.4 0.5 6.6-0.2 8.7-0.6 12.6-1.9 25.1-10.5 31.4-22.9 6.5-12.5 6.3-27.8 0.7-39.5" fill="#4a596d" fill-rule="nonzero" stroke="none" stroke-width="1" stroke-linecap="butt" stroke-linejoin="miter" stroke-miterlimit="10" stroke-dasharray="" stroke-dashoffset="0" font-family="none" font-weight="none" font-size="none" text-anchor="none" style="mix-blend-mode: normal" data-fill-palette-color="tertiary"></path></g><g transform="matrix(1,0,0,1,88.07199999999999,108.07199999999999)"><svg viewBox="0 0 143.85600000000002 143.85600000000002" height="143.85600000000002" width="143.85600000000002"><g><svg viewBox="0 0 143.85600000000002 143.85600000000002" height="143.85600000000002" width="143.85600000000002"><g><svg viewBox="0 0 143.85600000000002 143.85600000000002" height="143.85600000000002" width="143.85600000000002"><g id="textblocktransform"><svg viewBox="0 0 143.85600000000002 143.85600000000002" height="143.85600000000002" width="143.85600000000002" id="textblock"><g><svg viewBox="0 0 143.85600000000002 143.85600000000002" height="143.85600000000002" width="143.85600000000002"><g transform="matrix(1,0,0,1,29.544019535678345,29.544019535678345)"><svg viewBox="0 0 84.76796092864333 84.76796092864333" height="84.76796092864333" width="84.76796092864333"><g id="icon-0"><circle r="42" cx="42.38398046432167" cy="42.38398046432167" fill="#4a596d" data-fill-palette-color="accent"></circle><svg xmlns="http://www.w3.org/2000/svg" xmlns:xlink="http://www.w3.org/1999/xlink" version="1.1" x="12.7151941392965" y="12.715194139296504" viewBox="4.999668571289638 26.344446987363433 90.00057248417983 51.18555301263657" enable-background="new 0 0 100 100" xml:space="preserve" height="59.337572650050326" width="59.337572650050326" class="icon-xg-0" data-fill-palette-color="quaternary" id="xg-0"><path d="M8.275 64.488c-0.938-0.342-1.981 0.145-2.323 1.085-0.482 1.326-0.798 2.65-0.941 3.938-0.111 0.994 0.606 1.893 1.602 2.003 0.068 0.009 0.135 0.012 0.202 0.012 0.912 0 1.696-0.687 1.8-1.612 0.111-1.003 0.362-2.045 0.745-3.102C9.703 65.87 9.218 64.831 8.275 64.488z" fill="#ffffff" data-fill-palette-color="quaternary"></path><path d="M32.906 53.776c-2.394-1.773-5.07-2.705-7.964-2.754-0.989-0.021-1.827 0.781-1.844 1.781-0.017 1.002 0.781 1.827 1.783 1.845 2.192 0.036 4.226 0.766 6.048 2.169 0.16 0.123 0.336 0.213 0.517 0.276l0.656-1.494L32.906 53.776z" fill="#ffffff" data-fill-palette-color="quaternary"></path><path d="M16.686 53.201c-2.347 1.277-4.576 3.087-6.447 5.234-0.658 0.754-0.58 1.899 0.176 2.558 0.343 0.299 0.768 0.446 1.189 0.446 0.506 0 1.01-0.211 1.368-0.623 1.59-1.825 3.473-3.355 5.447-4.429 0.879-0.478 1.205-1.58 0.726-2.459C18.667 53.049 17.567 52.724 16.686 53.201z" fill="#ffffff" data-fill-palette-color="quaternary"></path><path d="M44.342 63.438c-1.033-0.375-2.065-0.92-3.089-1.617l-0.145 0.33-0.917 2.085-0.417 0.949c1.095 0.693 2.208 1.254 3.333 1.662 0.204 0.074 0.413 0.109 0.619 0.109 0.742 0 1.437-0.459 1.705-1.195C45.77 64.819 45.285 63.78 44.342 63.438z" fill="#ffffff" data-fill-palette-color="quaternary"></path><path d="M66.316 46.697c-0.943-0.332-1.979 0.165-2.311 1.11-0.85 2.417-1.879 4.662-3.06 6.672-0.507 0.863-0.22 1.974 0.645 2.481 0.288 0.17 0.604 0.25 0.916 0.25 0.622 0 1.229-0.32 1.566-0.896 1.298-2.212 2.427-4.669 3.354-7.306C67.759 48.064 67.262 47.029 66.316 46.697z" fill="#ffffff" data-fill-palette-color="quaternary"></path><path d="M84.706 26.753c-2.881-0.75-5.877-0.464-8.72 0.83-0.911 0.415-1.313 1.491-0.899 2.401 0.305 0.668 0.962 1.063 1.651 1.063 0.251 0 0.506-0.053 0.749-0.164 2.084-0.949 4.226-1.164 6.302-0.621 0.968 0.25 1.959-0.329 2.213-1.298C86.256 27.996 85.675 27.006 84.706 26.753z" fill="#ffffff" data-fill-palette-color="quaternary"></path><path d="M56.553 60.15c-1.844 1.752-3.788 2.938-5.781 3.522-0.961 0.281-1.512 1.289-1.23 2.25 0.232 0.791 0.955 1.303 1.739 1.303 0.17 0 0.341-0.023 0.512-0.073 2.552-0.746 4.995-2.221 7.261-4.374 0.726-0.692 0.754-1.839 0.064-2.566C58.425 59.487 57.278 59.458 56.553 60.15z" fill="#ffffff" data-fill-palette-color="quaternary"></path><path d="M71.92 32.603c-0.786-0.619-1.926-0.483-2.546 0.302-1.798 2.283-2.998 4.805-3.38 7.099l-0.11 0.641c-0.177 0.985 0.478 1.928 1.464 2.105 0.107 0.019 0.216 0.028 0.321 0.028 0.861 0 1.626-0.616 1.783-1.494l0.118-0.682c0.28-1.682 1.246-3.67 2.651-5.455C72.844 34.362 72.707 33.223 71.92 32.603z" fill="#ffffff" data-fill-palette-color="quaternary"></path><path d="M94.63 34.128c-0.823-1.083-1.682-2.067-2.551-2.926-0.713-0.704-1.86-0.697-2.563 0.016-0.704 0.713-0.697 1.86 0.016 2.564 0.749 0.739 1.492 1.594 2.212 2.54 0.356 0.47 0.898 0.716 1.444 0.716 0.383 0 0.769-0.121 1.096-0.37C95.081 36.063 95.237 34.925 94.63 34.128z" fill="#ffffff" data-fill-palette-color="quaternary"></path><path d="M44.074 28.573c-7.352 0-13.331 5.98-13.331 13.332 0 3.436 1.317 6.563 3.459 8.929 0.434 0.478 0.89 0.936 1.388 1.347l-1.827 4.149-1.788 4.068-5.3 12.042c-0.806 1.834 0.027 3.974 1.859 4.781 0.474 0.209 0.97 0.309 1.459 0.309 1.393 0 2.723-0.81 3.32-2.167l4.946-11.237 0.272-0.618 0.918-2.085 0.32-0.729 2.464-5.597c0.604 0.084 1.215 0.142 1.841 0.142 0.026 0 0.052-0.003 0.078-0.003 7.316-0.042 13.253-6.003 13.253-13.33C57.405 34.554 51.426 28.573 44.074 28.573zM45.819 51.445c-0.567 0.104-1.149 0.166-1.746 0.166-0.101 0-0.2-0.013-0.303-0.017-0.959-0.028-1.885-0.195-2.756-0.485-0.289-0.097-0.57-0.205-0.846-0.327-0.278-0.123-0.549-0.256-0.813-0.404-0.822-0.459-1.568-1.034-2.222-1.705-0.478-0.491-0.901-1.035-1.27-1.617-0.939-1.495-1.494-3.258-1.494-5.152 0-5.352 4.354-9.706 9.705-9.706 5.351 0 9.705 4.354 9.705 9.706C53.778 46.661 50.338 50.62 45.819 51.445z" fill="#ffffff" data-fill-palette-color="quaternary"></path></svg></g></svg></g><g id="text-0"><path d="M13.323 47.505v0l0.329-0.723c0.388-1.062 0.345-2.101-0.128-3.117v0c-0.466-1.013-1.253-1.722-2.359-2.125v0c-1.45-0.529-2.758-0.282-3.925 0.741v0c-0.643 0.558-1.139 1.224-1.485 1.998v0c-0.155 0.325-0.286 0.635-0.393 0.927v0l-0.226 0.62c-0.044 0.121-0.082 0.233-0.112 0.338v0l12.154 4.434-1.684 4.618-12.823-4.678c0.515-1.412 0.933-2.557 1.253-3.435 0.32-0.878 0.531-1.446 0.633-1.704 0.104-0.265 0.2-0.5 0.29-0.705 0.083-0.208 0.163-0.398 0.241-0.572v0c0.123-0.258 0.317-0.612 0.582-1.063 0.268-0.457 0.616-0.878 1.044-1.262 0.428-0.384 0.893-0.68 1.394-0.886v0c1.067-0.454 2.15-0.48 3.25-0.079v0c1.088 0.397 1.923 1.091 2.505 2.081v0c0.592 1.023 0.798 2.169 0.617 3.436v0c1.943 0.067 3.244-0.269 3.903-1.008v0c0.199-0.23 0.348-0.479 0.445-0.746v0l0.089-0.778c0.081-0.223 0.236-0.292 0.466-0.209v0c0.318 0.116 0.34 0.549 0.066 1.3v0c-0.197 0.541-0.528 0.982-0.991 1.325v0c-0.684 0.551-1.727 0.851-3.129 0.901v0l-0.737 0.034c-0.118 0.007-0.196 0.022-0.233 0.045-0.037 0.023-0.071 0.075-0.1 0.158-0.03 0.083-0.049 0.155-0.058 0.217v0l-0.07 0.223c-0.088 0.242-0.193 0.391-0.315 0.447-0.126 0.048-0.236 0.054-0.331 0.02v0c-0.261-0.095-0.315-0.353-0.162-0.773z" fill="#4a596d" data-fill-palette-color="primary"></path><path d="M19.168 34.975v0c-0.607-0.477-1.072-1.019-1.396-1.626-0.325-0.617-0.52-1.261-0.587-1.933v0c-0.14-1.444 0.284-2.795 1.271-4.051v0c1.004-1.278 2.231-1.997 3.683-2.156v0c1.374-0.16 2.652 0.224 3.834 1.152v0c1.187 0.933 1.871 2.107 2.051 3.522v0c0.185 1.463-0.22 2.828-1.215 4.095v0c-0.974 1.241-2.171 1.958-3.59 2.152v0c-1.466 0.2-2.816-0.185-4.051-1.155zM18.827 28.044l7.251 5.696c0.035-0.033 0.069-0.071 0.103-0.114v0l0.081-0.103c0.803-1.022 1.159-2.128 1.07-3.319v0c-0.1-1.275-0.704-2.348-1.812-3.217v0c-1.081-0.849-2.233-1.19-3.457-1.024v0c-1.201 0.159-2.226 0.779-3.075 1.859v0l-0.088 0.112c-0.029 0.037-0.054 0.074-0.073 0.11z" fill="#4a596d" data-fill-palette-color="primary"></path><path d="M38.853 22.698v0c-1.859 1.288-3.417 1.024-4.673-0.79v0l-4.083-5.894 3.398-2.354 5.372 7.756c0.069-0.007 0.143-0.037 0.221-0.091v0l0.267-0.185c0.423-0.293 0.727-0.924 0.913-1.892v0c0.055-0.301 0.086-0.607 0.094-0.918v0l-4.412-6.37 3.406-2.359 5.863 8.466-3.406 2.359-0.844-1.219c-0.23 1.51-0.936 2.674-2.116 3.491z" fill="#4a596d" data-fill-palette-color="primary"></path><path d="M56.922 13.926v0c-2.414 0.74-3.959 0.01-4.634-2.191v0l-1.865-6.046-1.044 0.374c-0.33 0.101-0.534 0.026-0.611-0.227-0.077-0.252 0.062-0.433 0.418-0.543v0l0.896-0.232 0.135-0.042-0.437-1.427 3.416-2.992 0.983 3.205 1.233-0.379 0.862-0.307c0.362-0.111 0.583-0.037 0.663 0.222v0c0.036 0.117 0.015 0.222-0.063 0.317-0.084 0.096-0.19 0.165-0.319 0.204v0l-1.161 0.303-1.01 0.309 2.659 8.671c0.715-0.233 1.25-0.624 1.606-1.172v0c0.175-0.238 0.269-0.507 0.283-0.81 0.007-0.3 0.038-0.5 0.092-0.601 0.054-0.102 0.133-0.168 0.236-0.2v0c0.104-0.032 0.207-0.017 0.31 0.043 0.097 0.062 0.162 0.148 0.197 0.258 0.036 0.117 0.045 0.252 0.028 0.406-0.021 0.162-0.069 0.34-0.144 0.533v0c-0.167 0.426-0.4 0.796-0.702 1.107v0c-0.549 0.565-1.225 0.971-2.027 1.217z" fill="#4a596d" data-fill-palette-color="primary"></path><path d="M76.345 9.003v0c0.25-0.009 0.38 0.101 0.388 0.331v0c0.006 0.176-0.098 0.386-0.312 0.631v0c-0.977 1.079-2.348 1.651-4.114 1.715v0c-1.583 0.058-2.937-0.371-4.061-1.284v0c-1.16-0.96-1.767-2.202-1.823-3.725v0c-0.057-1.549 0.404-2.847 1.382-3.891v0c1.037-1.101 2.445-1.685 4.225-1.75v0c1.421-0.052 2.634 0.338 3.64 1.168v0c1.076 0.896 1.642 2.101 1.697 3.617v0c0.008 0.217 0.013 0.447 0.015 0.691v0l-6.363 0.232 0.15 4.13c0.436 0.079 0.929 0.108 1.477 0.089v0c1.157-0.042 2.131-0.46 2.922-1.255v0c0.156-0.175 0.27-0.311 0.341-0.409v0c0.142-0.188 0.288-0.285 0.436-0.29zM73.662 5.94l-0.148-4.08c-0.424-0.106-0.9-0.15-1.428-0.131-0.528 0.019-0.942 0.072-1.244 0.157v0l0.151 4.151z" fill="#4a596d" data-fill-palette-color="primary"></path><path d="M83.794 12.306c-0.118-0.053-0.191-0.134-0.22-0.242-0.035-0.111-0.028-0.219 0.02-0.325v0c0.095-0.183 0.21-0.338 0.344-0.465 0.143-0.132 0.246-0.23 0.309-0.294 0.066-0.071 0.137-0.148 0.214-0.229v0l0.608-0.689 7.442-10.062 1.506 9.152 6.48-6.552 0.288 15.09-4.925-1.604 0.011-7.74-5.911 6.182-1.551-7.8-2.586 3.58c-0.353 0.384-0.621 0.716-0.806 0.998-0.186 0.288-0.336 0.507-0.448 0.655v0c-0.248 0.346-0.506 0.462-0.775 0.345z" fill="#4a596d" data-fill-palette-color="primary"></path><path d="M111.889 25.282l0.388-0.509c-0.989-0.063-1.883-0.398-2.681-1.005v0c-1.062-0.807-1.708-1.719-1.938-2.736v0c-0.254-1.052-0.011-2.066 0.731-3.042v0c0.652-0.857 1.52-1.311 2.605-1.362v0c1.096-0.043 2.193 0.354 3.293 1.189v0c0.738 0.561 1.324 1.228 1.758 2.001v0l1.604-2.11c-0.366-0.491-0.728-0.872-1.083-1.143-0.356-0.27-0.667-0.482-0.935-0.634-0.273-0.156-0.542-0.289-0.807-0.397v0c-0.577-0.226-1.073-0.323-1.489-0.29v0c-0.243 0.028-0.423-0.003-0.542-0.093-0.119-0.09-0.185-0.187-0.199-0.292-0.02-0.108-0.003-0.198 0.05-0.268 0.053-0.07 0.116-0.124 0.188-0.163 0.072-0.039 0.168-0.064 0.287-0.075v0c0.249-0.015 0.606 0.048 1.069 0.188v0c0.957 0.285 1.807 0.711 2.551 1.276v0c2.274 1.729 3.315 3.375 3.122 4.938v0c-0.09 0.689-0.434 1.426-1.032 2.213v0l-3.657 4.81zM112.775 24.118l2.815-3.702c-0.409-0.804-0.934-1.45-1.576-1.938v0c-0.102-0.078-0.206-0.144-0.309-0.197v0l-3.713 4.883c0.023 0.026 0.05 0.051 0.083 0.075 0.027 0.02 0.057 0.043 0.089 0.068v0c0.701 0.533 1.571 0.803 2.611 0.811z" fill="#4a596d" data-fill-palette-color="primary"></path><path d="M122.852 37.414v0c-1.477-2.048-1.283-3.745 0.584-5.092v0l5.125-3.71-0.688-0.868c-0.202-0.28-0.196-0.497 0.018-0.652 0.214-0.154 0.43-0.081 0.648 0.221v0l0.507 0.774 0.084 0.115 1.21-0.873 3.932 2.273-2.718 1.96 0.754 1.046 0.568 0.718c0.222 0.307 0.223 0.54 0.003 0.699v0c-0.099 0.071-0.205 0.086-0.32 0.043-0.118-0.048-0.217-0.127-0.296-0.237v0l-0.66-1.002-0.618-0.857-7.355 5.306c0.451 0.602 0.993 0.983 1.627 1.143v0c0.281 0.089 0.567 0.092 0.857 0.008 0.286-0.089 0.486-0.125 0.599-0.106 0.113 0.018 0.202 0.071 0.265 0.159v0c0.063 0.088 0.083 0.19 0.059 0.308-0.028 0.112-0.088 0.202-0.181 0.269-0.099 0.071-0.224 0.124-0.375 0.157-0.16 0.032-0.344 0.044-0.551 0.035v0c-0.457-0.021-0.882-0.123-1.274-0.308v0c-0.712-0.338-1.313-0.848-1.804-1.529z" fill="#4a596d" data-fill-palette-color="primary"></path><path d="M133.763 54.222v0c0.089 0.234 0.026 0.392-0.189 0.474v0c-0.164 0.063-0.397 0.032-0.698-0.092v0c-1.336-0.578-2.318-1.692-2.948-3.344v0c-0.564-1.48-0.594-2.9-0.09-4.258v0c0.536-1.407 1.516-2.382 2.939-2.925v0c1.449-0.552 2.825-0.533 4.13 0.057v0c1.377 0.627 2.382 1.773 3.016 3.437v0c0.506 1.329 0.528 2.603 0.065 3.823v0c-0.502 1.307-1.461 2.23-2.878 2.77v0c-0.202 0.077-0.419 0.156-0.649 0.236v0l-2.267-5.95-3.863 1.472c0.066 0.439 0.196 0.914 0.392 1.427v0c0.412 1.082 1.122 1.869 2.128 2.362v0c0.216 0.092 0.382 0.155 0.496 0.191v0c0.224 0.074 0.362 0.181 0.416 0.32zM135.799 50.697l3.815-1.454c-0.036-0.436-0.147-0.9-0.335-1.394-0.188-0.493-0.371-0.869-0.549-1.127v0l-3.882 1.479z" fill="#4a596d" data-fill-palette-color="primary"></path><path d="M6.119 72.088c0-0.902 0.732-1.634 1.634-1.634 0.902 0 1.634 0.732 1.634 1.634 0 0.902-0.732 1.634-1.634 1.634-0.902 0-1.634-0.732-1.634-1.634z" fill="#4a596d" data-fill-palette-color="primary"></path><path d="M137.607 72.088c0-0.902 0.732-1.634 1.634-1.634 0.902 0 1.634 0.732 1.634 1.634 0 0.902-0.732 1.634-1.634 1.634-0.902 0-1.634-0.732-1.634-1.634z" fill="#4a596d" data-fill-palette-color="primary"></path></g><g id="text-1"><path d="M5.879 94.52l-0.797-2.496 13.582-4.339 2.098 6.568-1.956 0.316-1.212-3.792-4.15 1.326 1.054 3.299-1.867 0.596-1.054-3.299z" fill="#4a596d" data-fill-palette-color="primary"></path><path d="M21.216 102.022c0.142 0.285 0.226 0.561 0.253 0.827v0l-2.368 0.713c-0.063-0.279-0.146-0.521-0.248-0.727v0c-0.232-0.467-0.619-0.735-1.161-0.806-0.542-0.071-1.249 0.02-2.122 0.273v0l-5.373 2.673-1.131-2.273 9.774-4.863 0.982 1.973-1.615 1.019c1.517-0.188 2.52 0.209 3.009 1.191z" fill="#4a596d" data-fill-palette-color="primary"></path><path d="M22.931 105.288l1.394 2.122-9.125 5.993-1.394-2.122zM28.172 103.352c0.249 0.379 0.331 0.763 0.246 1.151-0.087 0.397-0.32 0.721-0.7 0.97v0c-0.368 0.242-0.751 0.323-1.15 0.245-0.39-0.076-0.71-0.303-0.959-0.682v0c-0.249-0.379-0.333-0.766-0.251-1.16 0.087-0.397 0.315-0.717 0.682-0.958v0c0.379-0.249 0.768-0.335 1.168-0.257 0.394 0.082 0.715 0.312 0.964 0.691z" fill="#4a596d" data-fill-palette-color="primary"></path><path d="M28.042 119.703c-0.091 0.081-0.367 0.301-0.828 0.659v0l-3.76-4.198c-0.801 0.79-1.255 1.46-1.362 2.011-0.107 0.55 0.045 1.055 0.456 1.513v0c0.285 0.318 0.595 0.558 0.931 0.721 0.336 0.162 0.756 0.286 1.26 0.371v0l-0.376 1.741c-1.337-0.093-2.456-0.641-3.355-1.644v0c-0.953-1.064-1.317-2.211-1.091-3.441 0.226-1.229 1.01-2.445 2.351-3.646v0c1.341-1.202 2.647-1.88 3.917-2.036 1.26-0.156 2.337 0.265 3.231 1.264v0c0.854 0.953 1.172 2.004 0.956 3.152-0.212 1.153-0.989 2.331-2.33 3.533zM26.835 117.457l0.106-0.094c0.767-0.687 1.243-1.281 1.428-1.785 0.195-0.502 0.11-0.958-0.255-1.366v0c-0.343-0.383-0.777-0.517-1.301-0.402-0.524 0.105-1.232 0.522-2.126 1.249v0z" fill="#4a596d" data-fill-palette-color="primary"></path><path d="M38.514 121.167c0.613 0.48 0.928 1.083 0.944 1.81 0.011 0.722-0.278 1.459-0.866 2.21v0l-4.982 6.366-2-1.564 4.807-6.142c0.321-0.411 0.494-0.752 0.519-1.026 0.026-0.264-0.071-0.481-0.289-0.652v0c-0.453-0.355-1.235-0.279-2.345 0.228v0l-4.707 6.014-1.999-1.564 6.728-8.598 1.736 1.358-0.725 1.239c0.643-0.228 1.217-0.324 1.723-0.29 0.502 0.04 0.987 0.244 1.456 0.611z" fill="#4a596d" data-fill-palette-color="primary"></path><path d="M50.33 122.995l2.141 1.39-6.96 13.619-1.999-1.021 0.456-1.181c-1.047 0.636-2.026 0.721-2.937 0.255v0c-1.001-0.511-1.54-1.353-1.617-2.526-0.071-1.169 0.306-2.562 1.131-4.177v0c0.527-1.031 1.128-1.864 1.803-2.501 0.675-0.636 1.363-1.037 2.063-1.203 0.701-0.166 1.371-0.086 2.01 0.24v0c0.784 0.401 1.261 1.051 1.432 1.952v0zM42.551 134.69c0.277 0.142 0.581 0.172 0.912 0.09 0.325-0.085 0.691-0.251 1.099-0.499v0l2.417-4.73c-0.056-0.857-0.334-1.414-0.834-1.67v0c-0.995-0.508-2.074 0.377-3.239 2.656v0c-0.632 1.236-0.958 2.179-0.979 2.83-0.03 0.654 0.178 1.095 0.624 1.323z" fill="#4a596d" data-fill-palette-color="primary"></path><path d="M56.934 130.05c1.24 0.366 2.172 1.085 2.794 2.158v0l-1.326 1.049c-0.292-0.375-0.584-0.677-0.876-0.905-0.286-0.226-0.602-0.389-0.946-0.49v0c-0.383-0.113-0.715-0.101-0.995 0.035-0.276 0.145-0.465 0.392-0.569 0.743v0c-0.105 0.357-0.07 0.682 0.105 0.973 0.184 0.287 0.603 0.686 1.257 1.196v0c0.804 0.625 1.352 1.245 1.643 1.861 0.292 0.615 0.317 1.332 0.076 2.15v0c-0.301 1.02-0.894 1.716-1.781 2.091-0.88 0.376-1.869 0.402-2.967 0.078v0c-0.714-0.211-1.333-0.531-1.855-0.96-0.527-0.438-0.947-0.953-1.26-1.546v0l1.573-0.955c0.549 0.868 1.207 1.414 1.973 1.64v0c0.435 0.128 0.811 0.112 1.126-0.049 0.322-0.159 0.544-0.443 0.665-0.853v0c0.088-0.299 0.109-0.561 0.062-0.786-0.048-0.219-0.181-0.452-0.397-0.699-0.218-0.241-0.562-0.536-1.031-0.886v0c-0.804-0.625-1.331-1.232-1.581-1.822-0.248-0.595-0.264-1.26-0.047-1.993v0c0.262-0.89 0.789-1.528 1.581-1.917 0.798-0.386 1.724-0.424 2.776-0.113z" fill="#4a596d" data-fill-palette-color="primary"></path><path d="M72.953 132.351c1.374 0.029 2.434 0.531 3.178 1.509 0.745 0.977 1.098 2.417 1.058 4.318v0c-0.038 1.814-0.453 3.221-1.246 4.22-0.793 0.999-1.869 1.485-3.23 1.457v0c-1.361-0.028-2.416-0.548-3.167-1.559-0.751-1.011-1.107-2.444-1.069-4.299v0c0.038-1.848 0.454-3.258 1.246-4.23 0.792-0.972 1.869-1.444 3.23-1.416zM72.913 134.27c-0.596-0.012-1.035 0.27-1.318 0.846-0.29 0.576-0.449 1.555-0.478 2.936v0c-0.029 1.388 0.089 2.375 0.355 2.963 0.259 0.588 0.686 0.888 1.282 0.901v0c0.589 0.012 1.028-0.27 1.317-0.847 0.283-0.576 0.439-1.559 0.468-2.946v0c0.029-1.394-0.086-2.382-0.345-2.963-0.266-0.581-0.693-0.878-1.281-0.89z" fill="#4a596d" data-fill-palette-color="primary"></path><path d="M85.479 131.224c0.769-0.124 1.425 0.055 1.97 0.536 0.537 0.482 0.882 1.195 1.034 2.137v0l1.289 7.981-2.507 0.404-1.243-7.699c-0.083-0.515-0.217-0.874-0.4-1.078-0.176-0.198-0.401-0.275-0.675-0.23v0c-0.568 0.092-1.043 0.717-1.426 1.876v0l1.218 7.539-2.507 0.405-1.74-10.777 2.175-0.352 0.418 1.373c0.269-0.626 0.588-1.113 0.957-1.461 0.37-0.341 0.849-0.559 1.437-0.654z" fill="#4a596d" data-fill-palette-color="primary"></path><path d="M104.91 134.044l1.461 1.045c-0.382 0.768-0.984 1.343-1.806 1.726v0c-0.865 0.403-1.636 0.463-2.313 0.181-0.677-0.282-1.212-0.847-1.607-1.694v0l-2.684-5.763-1.16 0.541-0.777-1.667 1.16-0.54-1.02-2.191 2.173-1.348 1.149 2.467 1.869-0.87 0.555 1.769-1.648 0.767 2.684 5.763c0.277 0.595 0.671 0.774 1.18 0.537v0c0.166-0.077 0.3-0.166 0.403-0.266 0.103-0.1 0.23-0.253 0.381-0.457z" fill="#4a596d" data-fill-palette-color="primary"></path><path d="M108.319 121.281c0.652-0.426 1.324-0.529 2.017-0.311 0.687 0.222 1.292 0.733 1.814 1.532v0l4.421 6.768-2.125 1.388-4.266-6.529c-0.285-0.436-0.553-0.71-0.803-0.822-0.241-0.109-0.478-0.088-0.711 0.064v0c-0.482 0.315-0.662 1.079-0.54 2.293v0l4.178 6.394-2.126 1.389-8.354-12.787 1.981-1.61 3.238 4.957c-0.003-0.637 0.09-1.175 0.28-1.615 0.199-0.438 0.531-0.808 0.996-1.111z" fill="#4a596d" data-fill-palette-color="primary"></path><path d="M122.46 116.05c0.085 0.087 0.315 0.354 0.691 0.801v0l-4.046 3.924c0.821 0.769 1.509 1.196 2.063 1.281 0.554 0.085 1.052-0.087 1.495-0.516v0c0.306-0.297 0.534-0.617 0.682-0.959 0.149-0.342 0.256-0.767 0.322-1.273v0l1.755 0.307c-0.04 1.34-0.543 2.479-1.511 3.417v0c-1.026 0.994-2.157 1.403-3.394 1.226-1.237-0.177-2.483-0.912-3.737-2.205v0c-1.254-1.293-1.983-2.571-2.189-3.833-0.206-1.253 0.173-2.346 1.135-3.279v0c0.919-0.891 1.956-1.251 3.112-1.079 1.161 0.166 2.368 0.896 3.622 2.188zM120.264 117.345l-0.099-0.102c-0.716-0.739-1.329-1.191-1.839-1.357-0.51-0.175-0.961-0.072-1.355 0.31v0c-0.369 0.358-0.486 0.797-0.351 1.316 0.126 0.519 0.57 1.211 1.333 2.074v0z" fill="#4a596d" data-fill-palette-color="primary"></path><path d="M126.559 97.978l2.02 0.411c-0.023 0.314-0.111 0.661-0.264 1.042-0.148 0.383-0.372 0.84-0.673 1.369v0c0.523-0.373 1.053-0.566 1.591-0.58 0.541-0.02 1.105 0.137 1.694 0.472v0c0.954 0.542 1.558 1.274 1.812 2.197 0.258 0.917 0.101 1.879-0.471 2.886v0c-0.171 0.3-0.393 0.575-0.667 0.824v0c0.059 0.321 0.244 0.571 0.556 0.748v0c0.235 0.134 0.452 0.171 0.649 0.112 0.195-0.069 0.394-0.282 0.598-0.641v0l0.567-0.998c0.545-0.96 1.224-1.579 2.036-1.857 0.821-0.281 1.615-0.204 2.38 0.23v0c0.907 0.515 1.432 1.276 1.575 2.285 0.15 1.012-0.142 2.162-0.873 3.451v0c-0.776 1.366-1.568 2.177-2.376 2.435-0.817 0.26-1.709 0.116-2.674-0.433v0l1.113-1.96c0.512 0.291 0.944 0.38 1.296 0.269 0.349-0.121 0.717-0.523 1.105-1.206v0c0.374-0.659 0.527-1.188 0.457-1.586-0.072-0.407-0.318-0.729-0.736-0.967v0c-0.406-0.231-0.772-0.286-1.096-0.167-0.315 0.117-0.609 0.414-0.879 0.89v0l-0.392 0.689c-0.515 0.907-1.053 1.477-1.614 1.711-0.561 0.234-1.121 0.192-1.68-0.125v0c-0.324-0.184-0.584-0.445-0.782-0.783-0.194-0.344-0.319-0.726-0.376-1.148v0c-0.59 0.311-1.164 0.46-1.725 0.446-0.563-0.024-1.153-0.211-1.771-0.562v0c-1.042-0.592-1.689-1.372-1.941-2.341-0.249-0.959-0.075-1.966 0.524-3.019v0c0.441-0.777 0.72-1.467 0.837-2.071 0.126-0.606 0.186-1.28 0.18-2.023zM127.008 102.904c-0.237 0.418-0.268 0.821-0.092 1.21 0.18 0.382 0.594 0.758 1.241 1.125v0c0.606 0.344 1.135 0.504 1.585 0.48 0.453-0.031 0.795-0.249 1.026-0.655v0c0.237-0.418 0.267-0.814 0.09-1.187-0.181-0.367-0.615-0.747-1.304-1.138v0c-0.648-0.368-1.174-0.538-1.578-0.511-0.408 0.033-0.731 0.258-0.968 0.676z" fill="#4a596d" data-fill-palette-color="primary"></path><path d="M130.08 92.027c0.464-1.294 1.277-2.138 2.44-2.534 1.163-0.396 2.64-0.272 4.431 0.37v0c1.708 0.612 2.91 1.453 3.606 2.522 0.695 1.069 0.813 2.244 0.354 3.526v0c-0.459 1.281-1.288 2.117-2.485 2.507-1.197 0.391-2.669 0.273-4.416-0.353v0c-1.74-0.624-2.945-1.466-3.614-2.526-0.67-1.06-0.775-2.231-0.316-3.512zM131.886 92.675c-0.201 0.561-0.073 1.067 0.384 1.518 0.454 0.458 1.332 0.92 2.632 1.386v0c1.306 0.468 2.281 0.67 2.922 0.606 0.639-0.058 1.06-0.368 1.261-0.929v0c0.199-0.554 0.071-1.061-0.384-1.518-0.457-0.451-1.338-0.911-2.644-1.38v0c-1.313-0.471-2.286-0.676-2.919-0.615-0.635 0.067-1.053 0.378-1.252 0.932z" fill="#4a596d" data-fill-palette-color="primary"></path></g></svg></g></svg></g></svg></g></svg></g></svg></g></svg></g><defs></defs></svg><rect width="320" height="360" fill="none" stroke="none" visibility="hidden"></rect></g></svg></g></svg>